<?xml version="1.0" encoding="utf-8"?>
<!-- Generator: Adobe Illustrator 24.2.0, SVG Export Plug-In . SVG Version: 6.00 Build 0)  -->
<svg version="1.1" id="Слой_1" xmlns="http://www.w3.org/2000/svg" xmlns:xlink="http://www.w3.org/1999/xlink" x="0px" y="0px"
	 viewBox="0 0 283.46 283.46" style="enable-background:new 0 0 283.46 283.46;" xml:space="preserve">
<style type="text/css">
	.st0{fill:#EC3E5F;}
</style>
<g>
	<path class="st0" d="M149.58,195.03c-15.57,0-31.14,0.05-46.71-0.01c-16.8-0.06-30.27-10.84-33.56-26.85
		c-1.56-7.58-2.92-15.2-4.36-22.8c-4.51-23.74-9.01-47.49-13.54-71.22c-0.91-4.74-3.68-6.96-8.54-6.98
		c-4.23-0.02-8.46,0.02-12.7-0.01c-4.87-0.03-8.33-3.24-8.32-7.68c0.01-4.43,3.47-7.66,8.35-7.64c5.66,0.03,11.41-0.4,16.97,0.41
		c10.08,1.47,16.43,7.68,18.89,17.55c0.53,2.13,1.37,2.55,3.33,2.55c55.74-0.05,111.47-0.04,167.21-0.04c0.96,0,1.92-0.02,2.87,0.02
		c4.83,0.24,8.12,4.18,7.24,8.98c-2.76,14.98-5.63,29.94-8.47,44.91c-2.61,13.71-5.19,27.43-7.88,41.12
		c-3.29,16.74-16.45,27.59-33.58,27.67C181.04,195.08,165.31,195.03,149.58,195.03z M69.74,87.77c0.03,0.59,0.01,0.91,0.07,1.22
		c4.8,25.23,9.57,50.46,14.42,75.68c1.78,9.24,8.81,14.99,18.33,15c31.46,0.04,62.92,0.04,94.37,0c9.82-0.01,16.67-6,18.5-15.68
		c3.9-20.69,7.88-41.36,11.82-62.05c0.89-4.67,1.74-9.34,2.64-14.17C176.38,87.77,123.16,87.77,69.74,87.77z"/>
	<path class="st0" d="M129.25,220.47c0.04,8.53-6.76,15.41-15.26,15.42c-8.44,0.01-15.41-6.96-15.37-15.38
		c0.03-8.35,6.89-15.24,15.22-15.29C122.36,205.17,129.22,211.94,129.25,220.47z"/>
	<path class="st0" d="M170.27,220.63c-0.03-8.54,6.76-15.4,15.26-15.41c8.45-0.01,15.41,6.95,15.37,15.37
		c-0.03,8.35-6.88,15.23-15.21,15.29C177.18,235.95,170.3,229.15,170.27,220.63z"/>
</g>
</svg>
