<?xml version="1.0" encoding="utf-8"?>
<!-- Generator: Adobe Illustrator 21.0.0, SVG Export Plug-In . SVG Version: 6.00 Build 0)  -->
<svg version="1.1" id="Слой_1" xmlns="http://www.w3.org/2000/svg" xmlns:xlink="http://www.w3.org/1999/xlink" x="0px" y="0px"
	 viewBox="0 0 602 249" style="enable-background:new 0 0 602 249;" xml:space="preserve">
<style type="text/css">
	.st0{fill:#61D1E5;}
	.st1{fill:#FFB000;}
	.st2{fill:#FF8099;}
	.st3{fill:#24171C;}
	.st4{fill:none;}
	.st5{fill:#B8968A;}
	.st6{fill:#E8DBD4;}
	.st7{fill:#774B35;}
	.st8{fill:#FFFFFF;}
</style>
<g>
	<g>
		<path class="st0" d="M222.6,195.2C222.6,195.2,222.6,195.2,222.6,195.2c0.1-0.2,0.2-0.3,0.3-0.5c0.2-0.3,0.4-0.6,0.7-0.9
			c0.2-0.2,0.4-0.5,0.5-0.7c0,0,0,0,0,0c13.6-19.7,21.6-43.5,21.6-69.2c0-20.5-5.1-39.8-14-56.7c0-0.1,0.1-0.2,0.1-0.2
			c0,0,0-0.1,0.1-0.1c0,0,0,0,0,0c0,0,0,0,0,0c1.5-3.2,2.7-6.5,3.6-9.8c0.9-3.3,1.6-6.8,1.5-10.2c-0.1-2.3-0.8-5-2.9-6.3
			c-1.7-1.1-3.8-1.6-5.9-1.6c-0.7-0.1-1.3-0.2-2-0.3c-5.3-0.6-10.6-0.8-15.8-2.1c-0.6-0.1-1.1-0.3-1.7-0.4c0,0,0,0,0,0c0,0,0,0,0,0
			c-0.3-0.1-0.6-0.2-0.9-0.3C186.1,14.8,156.5,2,124,2c-32.5,0-62,12.7-83.9,33.5c-0.5,0.1-1,0.3-1.6,0.4c0,0,0,0,0,0c0,0,0,0,0,0
			c-0.4,0.1-0.9,0.2-1.3,0.4c-5.1,1.3-10.5,1.5-15.8,2.1c-0.6,0.1-1.3,0.2-2,0.3c-2.1,0.1-4.2,0.5-5.9,1.6c-2,1.3-2.8,4-2.9,6.3
			c-0.1,3.4,0.6,6.9,1.5,10.2c0.9,3.3,2.1,6.5,3.5,9.6c0,0,0,0,0,0c0.1,0.3,0.3,0.5,0.4,0.8c0,0,0,0,0,0
			C7.2,84.2,2.2,103.4,2.2,123.8c0,26.1,8.2,50.2,22.1,70c-0.1,0.1-0.2,0.2-0.3,0.2c0,0,0,0,0,0c-0.9,0.7-1.7,1.4-2.5,2.2
			c-3.4,3.3-5.5,8.4-3.6,13c1.6,3.8,5,6.4,9.2,6.3c0.8,0,1.6-0.1,2.4-0.3c-4.3,6.4-1,15.5,6.8,16.9c1.9,0.3,3.7,0.1,5.5-0.5
			c-0.2,0.6-0.4,1.2-0.6,1.8c-1,3.8,0.6,7.9,3.6,10.3c3.9,3.1,9.4,2.5,13.4,0c2.2-1.3,4.1-3,6-4.7c2-1.7,4-3.7,5.8-5.8c0,0,0,0,0,0
			c11.8-7.2,35.4-3.3,54.6-3.3c0.1,0-0.1,0,0,0c13.6,0,18.7,7.3,30.9,3.2c0.1,0-2.7-9.9,3.2,0.8c0.4,0.7,2.4,1.1,3.2,0.8
			c0.3-0.1-1.9-2.3-1.6-2.4c0.6-0.2,1-2.9,1.6-3.2c0.4-0.2,2.7,3.3,3.2,3.2c0.5-0.2,1.1-1.4,1.6-1.6c0.6-0.3,3.4,1.1,4,0.8
			c0.3-0.1-4.3-4.6-4-4.8c0.9-0.4,8,6.5,8.7,7.1c0.1,0,0.8-0.2,0.9-0.2c0,0,0,0,0,0c7,8.1,16.2,14.7,21.6,10.8
			c3.1-2.1,3.4-6.4,2-11.3c1.4,1.2,2.8,2.4,4.3,3.4c2.9,2,7.2,4.1,10.6,1.9c3.9-2.4,3.6-8.6,1.2-15.7c0.2,0.1,0.3,0.3,0.5,0.4
			c2.9,2.3,7.2,4.6,10.8,2.5c7-4,2.3-18.8-4-29.4C223.1,196,222.9,195.6,222.6,195.2z"/>
		<g>
			<path class="st1" d="M91.9,88.1c-9-2.9-18.5,0.9-23.6,8.8c-0.3,5.7,1.7,11.1,5.3,15.2c2.3,2.6,5.3,4.6,8.7,5.7
				c4.6,1.5,9.4,1.2,13.6-0.5c2-0.8,3.9-1.9,5.5-3.3c0.3-0.2,0.6-0.5,0.9-0.8c1.4-1.2,2.6-2.6,3.6-4.2
				C106.4,99.7,100.9,91,91.9,88.1z"/>
			<path class="st1" d="M179.6,96.9c-5.1-7.8-14.6-11.7-23.6-8.8c-9,2.9-14.5,11.6-14,20.9c1.2,1.8,2.6,3.4,4.2,4.8
				c5.3,4.4,12.5,6.2,19.4,4c3-1,5.6-2.6,7.7-4.7C177.6,109,179.9,103.1,179.6,96.9z"/>
		</g>
		<ellipse class="st2" cx="82.7" cy="179.7" rx="10.7" ry="5.5"/>
		<path class="st3" d="M124,128.8C124,128.8,124,128.8,124,128.8c-4.4,0-8,0.6-8,1.2c0,0.6,3.6,1.8,8,1.8c0,0,0,0,0,0
			c4.5,0,8-1.2,8-1.8C132,129.4,128.4,128.9,124,128.8z"/>
		<path class="st3" d="M89,110.6c2,0,3.6-3.5,3.7-7.9c0,0,0,0,0,0c-1.4,0-2.5-1.1-2.5-2.5c0-1.2,0.8-2.1,1.9-2.4
			c-0.7-2-1.7-3.3-3-3.3c-2,0-3.7,3.6-3.7,8.1C85.3,107,87,110.6,89,110.6z"/>
		<path class="st3" d="M162,102.8c-1.5,0-2.8-1.3-2.8-2.8c0-1.4,1.1-2.6,2.4-2.8c-0.7-1.7-1.6-2.7-2.7-2.7c-2,0-3.7,3.6-3.7,8.1
			c0,4.5,1.6,8.1,3.7,8.1c2,0,3.6-3.5,3.7-7.9C162.4,102.7,162.2,102.8,162,102.8z"/>
		<path class="st3" d="M114.3,178.5c-3.4-13.1-18.6-17.7-31.7-17.7c-13.9,0-30.2,5.2-32.1,20.3c0,0.2-0.1,0.7-0.1,1
			c2.2,0.2,4.1,1,5.3,2.7c2.5,3.4,0.6,7.9-1.3,11c-0.1,0.2-0.3,0.4-0.4,0.6c6.7-3.1,12.9-4.1,15.7-0.4c2.6,3.1,0.9,7.6-0.8,10.8
			c-0.9,1.6-1.9,3.1-3,4.6c4.4-1.7,8.4-2,10.9,0.2c0.2,0.2,0.4,0.4,0.6,0.6c3.2,3.6,1.2,9.7-3,15.8c2.8,0.4,5.6,0.6,8.2,0.6
			c14.1,0,32.2-4.8,32.2-20.7c0,0,0-25.5,0-25.5v-0.1c0-0.3-0.1-0.7-0.1-1C114.7,180.2,114.5,179.3,114.3,178.5z M91.9,191.2
			c-2.8,0.6-6,0.9-9.3,0.9c-13.3,0-24.1-5.5-24.1-12.3c0-6.8,10.8-12.3,24.1-12.3c13.3,0,24.1,5.5,24.1,12.3c0,0.5-0.1,0.9-0.1,1.4
			C105.6,185.7,99.8,189.5,91.9,191.2z"/>
		<path class="st3" d="M131.8,127.5c-2.5-0.5-5.1-0.5-7.6-0.5H124h0h-0.2c-2.5,0-5.1,0-7.6,0.5c-2.4,0.5-5,1.4-6,3.8
			c-1.3,3.2,0.4,7.1,2.5,9.5c2.7,3.1,6.7,5.1,11.1,5.1c0.1,0,0.2,0,0.2,0h0c0.1,0,0.2,0,0.2,0c4.4,0,8.4-2,11.1-5.1
			c2.1-2.4,3.8-6.3,2.5-9.5C136.8,128.8,134.1,127.9,131.8,127.5z M124,131.9C124,131.9,124,131.9,124,131.9c-4.5,0-8-1.2-8-1.8
			c0-0.6,3.6-1.2,8-1.2c0,0,0,0,0,0c4.4,0,8,0.6,8,1.2C132,130.6,128.4,131.8,124,131.9z"/>
		<path class="st4" d="M106,109c0.5-9.3-5.1-18-14-20.9c-9-2.9-18.5,0.9-23.6,8.8c-0.3,5.7,1.7,11.1,5.3,15.2
			c2.3,2.6,5.3,4.6,8.7,5.7c4.6,1.5,9.4,1.2,13.6-0.5c2-0.8,3.9-1.9,5.5-3.3c0.3-0.2,0.6-0.5,0.9-0.8C103.7,112,104.9,110.6,106,109
			z"/>
		<path class="st4" d="M156,88.1c-9,2.9-14.5,11.6-14,20.9c1.2,1.8,2.6,3.4,4.2,4.8c5.3,4.4,12.5,6.2,19.4,4c3-1,5.6-2.6,7.7-4.7
			c4.3-4.1,6.6-10.1,6.3-16.3C174.5,89.1,165,85.2,156,88.1z"/>
		<path class="st4" d="M185,79.2c1.1,1.9,2.1,3.8,3,5.8"/>
		<path class="st4" d="M190.2,103.6c-0.5,2.9-1.3,5.7-2.4,8.5"/>
		<path class="st4" d="M185,79.2c-0.8-1.2-1.6-2.5-2.4-3.6"/>
		<path class="st4" d="M189.9,91.2c-0.2-0.7-0.3-1.4-0.5-2.1"/>
		<path class="st4" d="M179.9,72.2c0.9,1.1,1.9,2.2,2.7,3.4"/>
		<path class="st4" d="M187.2,113.3c-0.6,1.2-1.2,2.4-1.9,3.6"/>
		<path class="st4" d="M187.7,112c-0.2,0.4-0.3,0.8-0.5,1.2"/>
		<path class="st5" d="M226.3,38.5c-5.3-0.6-10.6-0.8-15.8-2.1c-0.6-0.1-1.1-0.3-1.7-0.4c0,0,0,0,0,0c0,0,0,0,0,0
			c-4-1.1-8-2.4-11.9-3.8c-3.1-1.1-6.2-2.3-9.2-3.6c-7.4-3-14.8-6.4-22.3-9.4c-13.1-5.3-26.6-9.6-40.8-9.6h-0.1H124h-0.8
			c-13.6,0-26.5,3.9-39.1,8.9C76,21.6,68,25.2,60,28.5c-3,1.2-6,2.4-9,3.5c-4.1,1.5-8.2,2.8-12.4,4c0,0,0,0,0,0c0,0,0,0,0,0
			c-0.4,0.1-0.9,0.2-1.3,0.4c-5.1,1.3-10.5,1.5-15.8,2.1c-0.6,0.1-1.3,0.2-2,0.3c0.6,0,1.2,0,1.8,0c4.1,0.2,8.1,1.2,12.1,2.5
			c0,0,0,0,0,0c4.1,1.4,8,3.2,11.7,5.1c0,0,0,0,0,0c0.5,0.3,1,0.5,1.5,0.8c0,0,0.1,0,0.1,0c0.8,0.4,1.3,0.7,1.6,0.9
			c0.6,0.3,1.2,0.7,1.8,1c3-2.3,6.6-3.9,9.7-1.3c3.4,2.7,2.4,10.2,0.2,15.4c0.1,0,0.1,0,0.2,0c0.6-0.1,1.2-0.1,1.9-0.1
			c4.3,0,8.2,1.5,11.3,3.9c7.2-6,23.8-16.7,32.9-10.1c0-0.1-0.1-0.1-0.1-0.2c-2.9-4.5-7.9-13-2.3-17.5c2.8-2.2,7.3-1.5,11.4,1.3
			c0,0,0,0,0,0c0-0.1,0-0.3,0-0.4c0-2.6,0.5-5.2,1.4-7.7c1.2-3,3.6-6.9,7.3-6.9c0.1,0,0.1,0,0.2,0c1.9,0.1,3.5,1.3,4.7,2.7
			c2.8,3.4,3.8,8,3.8,12.2c0,0,0,0,0,0c4.2-2.9,8.7-3.5,11.4-1.3c2.6,2.1,2.6,5.9,1.9,8.9c-0.7,3.1-2.5,6-4.2,8.6
			c0,0.1-0.1,0.1-0.1,0.2c9.1-6.6,25.7,4,32.9,10.1c3.1-2.5,7.1-3.9,11.3-3.9c0.6,0,1.2,0,1.9,0.1c0.1,0,0.1,0,0.2,0
			c-2.2-5.2-3.2-12.7,0.2-15.4c3.1-2.5,6.6-1,9.6,1.3c1.6-0.9,3.2-1.8,4.8-2.7c1.6-0.8,3.2-1.6,4.8-2.4c0,0,0,0,0,0
			c0.1,0,0.2-0.1,0.3-0.1c0.3-0.1,0.6-0.3,0.9-0.4c0.1-0.1,0.3-0.1,0.4-0.2c0.3-0.1,0.6-0.3,0.9-0.4c0.1-0.1,0.3-0.1,0.4-0.2
			c1-0.4,1.9-0.8,2.9-1.1c0.2-0.1,0.4-0.1,0.6-0.2c0.1,0,0.2-0.1,0.3-0.1c0,0,0,0,0,0c4-1.4,8.2-2.3,12.3-2.6c0.6,0,1.2,0,1.8,0
			C227.6,38.7,226.9,38.6,226.3,38.5z"/>
		<path class="st4" d="M208.7,43.5c-0.3,0.1-0.6,0.3-0.9,0.4"/>
		<path class="st4" d="M210.4,42.8c1-0.4,1.9-0.8,2.9-1.1"/>
		<path class="st4" d="M209.1,43.3c0.3-0.1,0.6-0.3,0.9-0.4"/>
		<path class="st6" d="M217.1,88c-0.5-4.2-1.4-8.4-2.7-12.4c-2.4-7.7-6.2-15.1-11.4-21.3c-0.3-0.3-0.5-0.6-0.7-0.9
			c-1.1-1.3-2.7-3-4.4-4.3c-3-2.3-6.5-3.7-9.6-1.3c-3.4,2.7-2.4,10.2-0.2,15.4c-0.1,0-0.1,0-0.2,0c-0.6-0.1-1.2-0.1-1.9-0.1
			c-4.3,0-8.2,1.5-11.3,3.9c0.3,0.2,0.5,0.5,0.8,0.7c1.1,1,2.2,2.1,3.3,3.2c0.4,0.4,0.8,0.8,1.2,1.3c0.9,1.1,1.9,2.2,2.7,3.4
			c0.9,1.2,1.7,2.4,2.4,3.6c1.1,1.9,2.1,3.8,3,5.8c0.6,1.3,1,2.7,1.4,4.1c0.8,2.8,1.2,5.6,1.2,8.4c0,2-0.2,4.1-0.5,6.1
			c-0.5,2.9-1.3,5.7-2.4,8.5c-0.2,0.4-0.3,0.8-0.5,1.2c-0.6,1.2-1.2,2.4-1.9,3.6c-2.1,3.5-4.7,6.7-7.8,9.3
			c-3.4,2.9-7.4,5.2-11.7,6.7c-3.7,1.2-7.5,1.9-11.4,1.9c-0.5,0-1.5-0.1-2.5-0.1c-2.7-9.1-9.8-16.4-18.9-19.4c0,0,0,0,0-0.1
			c0-0.5,0-0.9,0-1.4c0-14.7,0.5-29.5,2.8-44.1c0-0.1,0-0.3,0.1-0.4c0.6-3.5,1.3-7.3,3.5-10.1c0.7-0.9,1.5-1.7,2.4-2.3
			c0-0.1,0.1-0.1,0.1-0.2c1.7-2.7,3.5-5.5,4.2-8.6c0.7-3,0.7-6.8-1.9-8.9c-2.8-2.2-7.3-1.5-11.4,1.3c0,0,0,0,0,0
			c0-4.3-1-8.9-3.8-12.2c-1.2-1.4-2.8-2.6-4.7-2.7c-0.1,0-0.1,0-0.2,0c-3.7,0-6.1,3.8-7.3,6.9c-0.9,2.4-1.4,5.1-1.4,7.7
			c0,0.1,0,0.3,0,0.4c0,0,0,0,0,0c-4.2-2.9-8.7-3.5-11.4-1.3c-5.6,4.5-0.6,13,2.3,17.5c0,0.1,0.1,0.1,0.1,0.2
			c0.8,0.6,1.6,1.4,2.3,2.3c2.2,2.9,2.9,6.6,3.5,10.1c0,0.1,0,0.3,0.1,0.4c2.3,14.5,2.8,29.2,2.8,43.8c0,0.5,0,1.1,0,1.6
			c0,0,0,0,0,0.1c-9.1,2.9-16.2,10.2-18.9,19.4c-0.9,0.1-2,0.1-2.5,0.1c-3.9,0-7.7-0.7-11.4-1.9c-4.3-1.5-8.3-3.7-11.7-6.7
			c-4.8-4-8.4-9.3-10.6-15.1c-1.7-4.3-2.6-9-2.6-13.6c0.1-9.8,5.2-19.5,12-26.6c1-1.1,2.1-2.2,3.2-3.1c0.2-0.2,0.5-0.4,0.8-0.7
			c-3.1-2.4-7.1-3.9-11.3-3.9c-0.6,0-1.2,0-1.9,0.1c-0.1,0-0.1,0-0.2,0c2.2-5.2,3.2-12.7-0.2-15.4c-3.1-2.5-6.7-1-9.7,1.3
			c-1.7,1.3-3.2,2.9-4.3,4.2c-0.3,0.3-0.6,0.7-0.8,1C39.8,60.7,36,68,33.6,75.6c-1.3,4.1-2.2,8.3-2.7,12.6c-0.5,4-0.7,8-0.5,12
			c0.5,11,4.5,20.7,10.7,28.8c7.4,9.6,18,16.9,29.8,21.1c6.9,2.5,14.1,4.3,21.3,5.5c0.1,0,0.3,0,0.6,0.1c-0.4-4.4,0.2-8.8,1.8-12.9
			c0,0,0-0.1,0.1-0.1c0.1-0.2,0.1-0.3,0.2-0.5c0.5,5.2,2.4,10.5,5.6,14.7c3.9,4.7,9.2,7.3,14.5,7c3.4-0.2,6.6-1.9,9-4.3
			c2.1,2.1,4.6,3.6,7.4,4.1c8.5,1.6,16.2-5.1,19.6-12.5c1.1-2.8,1.8-5.9,2.1-9c0.1,0.1,0.1,0.3,0.2,0.4c0,0.1,0,0.1,0.1,0.2
			c1.6,4.1,2.2,8.5,1.8,12.9c0.3,0,0.5-0.1,0.6-0.1c7.2-1.2,14.4-3,21.3-5.5c11.8-4.3,22.5-11.6,29.9-21.3
			c6.2-8.1,10.1-17.7,10.6-28.7C217.8,96.2,217.6,92.1,217.1,88z M135.3,140.8c-2.7,3.1-6.7,5.1-11.1,5.1c-0.1,0-0.2,0-0.2,0h0
			c-0.1,0-0.2,0-0.2,0c-4.4,0-8.4-2-11.1-5.1c-2.1-2.4-3.8-6.3-2.5-9.5c1-2.4,3.7-3.3,6-3.8c2.5-0.5,5.1-0.5,7.6-0.5h0.2h0h0.2
			c2.5,0,5.1,0,7.6,0.5c2.4,0.5,5,1.4,6,3.8C139.1,134.4,137.4,138.3,135.3,140.8z"/>
		<path class="st6" d="M168.5,222.4c-2.1-4.3-2.1-9.8,1.3-13.4c-11-19.4-27.5-31.7-45.8-31.7c-3.3,0-6.5,0.4-9.7,1.2
			c0.2,0.8,0.4,1.7,0.5,2.6c0,0.3,0.1,0.7,0.1,1v0.1c0,0,0,25.5,0,25.5c0,15.8-18.1,20.7-32.2,20.7c-2.6,0-5.4-0.2-8.2-0.6
			c-1.3,1.8-2.7,3.7-4.2,5.4c16.2,7.9,34.3,12.3,53.5,12.3c0.1,0,0.2,0,0.2,0c18.7,0,36.5-4.3,52.3-11.9c-1.4-1.6-2.7-3.2-3.8-4.9
			C171,226.8,169.6,224.7,168.5,222.4z"/>
		<path class="st7" d="M112.1,69.8c0-0.1,0-0.3-0.1-0.4c-0.6-3.5-1.3-7.3-3.5-10.1c-0.7-0.9-1.5-1.7-2.3-2.3
			c-9.1-6.7-25.8,4-32.9,10.1c-0.3,0.2-0.5,0.5-0.8,0.7c-1.1,1-2.2,2-3.2,3.1c-6.8,7.2-12,16.9-12,26.6c0,4.7,0.9,9.3,2.6,13.6
			c2.2,5.8,5.9,11,10.6,15.1c3.4,2.9,7.4,5.2,11.7,6.7c3.7,1.2,7.5,1.9,11.4,1.9c0.5,0,1.5-0.1,2.5-0.1c2.7-9.1,9.8-16.4,18.9-19.4
			c0,0,0,0,0-0.1c0-0.5,0-1.1,0-1.6C114.9,99,114.4,84.3,112.1,69.8z M95.9,117.3c-4.2,1.7-9,2-13.6,0.5c-3.5-1.1-6.4-3.1-8.7-5.7
			c-3.6-4.1-5.6-9.5-5.3-15.2c5.1-7.8,14.6-11.7,23.6-8.8c9,2.9,14.5,11.6,14,20.9c-1,1.6-2.2,3-3.6,4.2c-0.3,0.3-0.6,0.5-0.9,0.8
			C99.8,115.4,97.9,116.5,95.9,117.3z"/>
		<path class="st7" d="M185.3,116.9c0.7-1.2,1.3-2.4,1.9-3.6c0.2-0.4,0.4-0.8,0.5-1.2c1.1-2.7,2-5.6,2.4-8.5c0.3-2,0.5-4.1,0.5-6.1
			c0-2.1-0.3-4.2-0.7-6.3c-0.2-0.7-0.3-1.4-0.5-2.1c-0.4-1.4-0.9-2.7-1.4-4.1c-0.8-2-1.8-4-3-5.8c-0.8-1.2-1.6-2.5-2.4-3.6
			c-0.9-1.2-1.8-2.3-2.7-3.4c-0.4-0.4-0.8-0.9-1.2-1.3c-1.1-1.1-2.2-2.2-3.3-3.2c-0.2-0.2-0.5-0.4-0.8-0.7
			c-7.2-6-23.8-16.7-32.9-10.1c-0.9,0.6-1.6,1.4-2.4,2.3c-2.2,2.9-2.9,6.6-3.5,10.1c0,0.1,0,0.3-0.1,0.4
			c-2.3,14.6-2.8,29.3-2.8,44.1c0,0.5,0,0.9,0,1.4c0,0,0,0,0,0.1c9.1,2.9,16.2,10.2,18.9,19.4c0.9,0.1,2,0.1,2.5,0.1
			c3.9,0,7.7-0.7,11.4-1.9c4.3-1.5,8.3-3.7,11.7-6.7C180.6,123.6,183.2,120.4,185.3,116.9z M179.6,96.9c0.3,6.2-2.1,12.1-6.3,16.3
			c-2.1,2.1-4.7,3.7-7.7,4.7c-6.9,2.2-14.1,0.5-19.4-4c-1.6-1.4-3.1-3-4.2-4.8c-0.5-9.3,5.1-18,14-20.9
			C165,85.2,174.5,89.1,179.6,96.9z"/>
		<path class="st7" d="M237,46.7c-0.1-2.3-0.8-5-2.9-6.3c-1.7-1.1-3.8-1.6-5.9-1.6c-0.6,0-1.2,0-1.8,0c-4.1,0.2-8.3,1.2-12.3,2.6
			c0,0,0,0,0,0c-0.1,0-0.2,0.1-0.3,0.1c-0.2,0.1-0.4,0.1-0.6,0.2c-1,0.3-2,0.7-2.9,1.1c-0.1,0.1-0.3,0.1-0.4,0.2
			c-0.3,0.1-0.6,0.3-0.9,0.4c-0.1,0.1-0.3,0.1-0.4,0.2c-0.3,0.1-0.6,0.3-0.9,0.4c-0.1,0-0.2,0.1-0.3,0.1c0,0,0,0,0,0
			c-0.3,0.2-0.7,0.3-1,0.5c0,0,0,0,0,0c-1.3,0.6-2.6,1.2-3.9,1.9c-1.6,0.8-3.2,1.8-4.8,2.7c1.8,1.4,3.3,3,4.4,4.3
			c0.3,0.3,0.5,0.6,0.7,0.9c5.1,6.3,8.9,13.6,11.4,21.3c1.3,4,2.2,8.2,2.7,12.4c3.3-3.5,6.4-7.3,9.2-11.3c0,0,0,0,0,0
			c0.1-0.1,0.2-0.2,0.2-0.4c0.3-0.5,0.6-0.9,0.9-1.4c0.3-0.4,0.5-0.8,0.7-1.2c0.3-0.4,0.5-0.9,0.8-1.3c0.3-0.5,0.5-1,0.8-1.4
			c0.2-0.4,0.4-0.7,0.6-1.1c0.5-0.9,0.9-1.7,1.3-2.6c0.1-0.2,0.1-0.3,0.2-0.5c0,0,0-0.1,0.1-0.1c0,0,0,0,0,0c0,0,0,0,0,0
			c1.5-3.2,2.7-6.5,3.6-9.8C236.4,53.6,237.1,50.1,237,46.7z"/>
		<path class="st7" d="M17.8,70.7c0.1,0.3,0.3,0.5,0.5,0.8c0.2,0.4,0.4,0.7,0.6,1c0.1,0.2,0.2,0.4,0.4,0.6c0.8,1.3,1.6,2.6,2.4,3.8
			c0.1,0.1,0.1,0.2,0.2,0.3c0.3,0.4,0.6,0.9,0.9,1.3c0,0,0,0,0,0c0.7,0.9,1.3,1.8,2,2.7c0,0,0,0.1,0.1,0.1c0,0,0,0,0,0
			c1.9,2.4,3.9,4.8,6,6.9c0.5-4.3,1.4-8.5,2.7-12.6c2.4-7.7,6.2-15,11.3-21.2c0.3-0.3,0.5-0.7,0.8-1c1.1-1.3,2.6-2.9,4.3-4.2
			c-0.6-0.3-1.2-0.7-1.8-1c-0.3-0.2-0.7-0.4-1.6-0.9c0,0-0.1,0-0.1,0c-0.5-0.3-1-0.6-1.5-0.8c0,0,0,0,0,0c-3.7-1.9-7.6-3.7-11.7-5.1
			c0,0,0,0,0,0c-4-1.3-8.1-2.3-12.1-2.5c-0.6,0-1.2,0-1.8,0c-2.1,0.1-4.2,0.5-5.9,1.6c-2,1.3-2.8,4-2.9,6.3
			c-0.1,3.4,0.6,6.9,1.5,10.2c0.9,3.3,2.1,6.5,3.5,9.6c0,0,0,0,0,0c0.1,0.3,0.3,0.5,0.4,0.8c0.1,0.3,0.2,0.5,0.4,0.8
			c0.3,0.6,0.6,1.1,0.8,1.6C17.5,70,17.6,70.4,17.8,70.7z"/>
		<path class="st7" d="M222.6,195.2C222.6,195.2,222.6,195.2,222.6,195.2c-1-1.6-2-3.1-3.1-4.6c-2.9-3.8-7.8-6.3-12.5-4.9
			c-3.9,1.2-6.9,4.3-7.2,8.5c-0.1,0.8,0,1.6,0,2.5c-5.9-4.9-15.4-2.5-17.5,5.1c-0.5,1.9-0.5,3.7,0,5.5c-0.5-0.3-1.1-0.6-1.7-0.8
			c-3.7-1.3-8-0.3-10.6,2.5c0,0,0,0,0,0c-3.5,3.6-3.4,9-1.3,13.4c1.1,2.3,2.6,4.4,4,6.5c1.2,1.6,2.4,3.3,3.8,4.9c0,0,0,0,0,0
			c7,8.1,16.2,14.7,21.6,10.8c3.1-2.1,3.4-6.4,2-11.3c1.4,1.2,2.8,2.4,4.3,3.4c2.9,2,7.2,4.1,10.6,1.9c3.9-2.4,3.6-8.6,1.2-15.7
			c0.2,0.1,0.3,0.3,0.5,0.4c2.9,2.3,7.2,4.6,10.8,2.5c7-4,2.3-18.8-4-29.4C223.1,196,222.9,195.6,222.6,195.2z"/>
		<path class="st8" d="M82.7,167.5c-13.3,0-24.1,5.5-24.1,12.3c0,6.8,10.8,12.3,24.1,12.3c3.3,0,6.4-0.3,9.3-0.9
			c7.9-1.7,13.7-5.5,14.7-10c0.1-0.4,0.1-0.9,0.1-1.4C106.7,173,96,167.5,82.7,167.5z M82.7,185.2c-5.9,0-10.7-2.5-10.7-5.5
			c0-3,4.8-5.5,10.7-5.5s10.7,2.5,10.7,5.5C93.4,182.7,88.6,185.2,82.7,185.2z"/>
		<path class="st8" d="M124,128.8C124,128.8,124,128.8,124,128.8c-4.4,0-8,0.6-8,1.2c0,0.6,3.6,1.8,8,1.8c0,0,0,0,0,0
			c4.5,0,8-1.2,8-1.8C132,129.4,128.4,128.9,124,128.8z"/>
		<path class="st8" d="M92.6,102.8C92.7,102.8,92.7,102.8,92.6,102.8c1.4,0,2.5-1.2,2.5-2.5c0-1.4-1.1-2.5-2.5-2.5
			c-0.2,0-0.5,0-0.7,0.1c-1.1,0.3-1.9,1.3-1.9,2.4C90.1,101.6,91.2,102.8,92.6,102.8z"/>
		<path class="st8" d="M162,97.2c-0.1,0-0.3,0-0.4,0c-1.4,0.2-2.4,1.3-2.4,2.8c0,1.5,1.3,2.8,2.8,2.8c0.2,0,0.4,0,0.6-0.1
			c1.3-0.3,2.2-1.4,2.2-2.7C164.9,98.4,163.6,97.2,162,97.2z"/>
		<path class="st5" d="M206.9,128.9c-7.4,9.7-18,17-29.9,21.3c-6.9,2.5-14.1,4.3-21.3,5.5c-0.1,0-0.3,0-0.6,0.1
			c0.4-4.4-0.2-8.8-1.8-12.9c0-0.1,0-0.1-0.1-0.2c-0.1-0.1-0.1-0.3-0.2-0.4c-0.3,3.1-0.9,6.1-2.1,9c-3.3,7.4-11,14.1-19.6,12.5
			c-2.8-0.5-5.4-2-7.4-4.1c-2.4,2.5-5.6,4.1-9,4.3c-5.2,0.4-10.6-2.3-14.5-7c-3.2-4.1-5.1-9.5-5.6-14.7c-0.1,0.2-0.1,0.3-0.2,0.5
			c0,0,0,0.1-0.1,0.1c-1.6,4.1-2.2,8.5-1.8,12.9c-0.3,0-0.5-0.1-0.6-0.1c-7.2-1.2-14.4-3-21.3-5.5c-11.8-4.3-22.3-11.6-29.8-21.1
			c-5.4,16.1-10.2,33.3-14.2,50.8c-1,4.4-2,8.9-3,13.4c0.1,0.2,0.3,0.4,0.4,0.6c0.8-0.7,1.7-1.3,2.6-2c2.6-2,5.5-3.9,8.5-5.4
			c5.3-2.8,10.8-4.7,15-4.3c0-0.3,0.1-0.7,0.1-1c1.9-15,18.3-20.2,32.1-20.3c13.1,0,28.3,4.6,31.7,17.7c3.1-0.8,6.4-1.2,9.7-1.2
			c18.4,0,34.8,12.3,45.8,31.7c0,0,0,0,0,0c2.7-2.8,6.9-3.9,10.6-2.5c0.6,0.2,1.2,0.5,1.7,0.8c-0.4-1.8-0.5-3.6,0-5.5
			c2.2-7.6,11.6-10,17.5-5.1c-0.1-0.8-0.1-1.6,0-2.5c0.3-4.2,3.3-7.3,7.2-8.5c4.8-1.4,9.6,1.1,12.5,4.9c1.1,1.5,2.1,3,3.1,4.6
			c0.5-0.7,1-1.4,1.5-2.2C219.5,170.9,213.7,149.1,206.9,128.9z"/>
		<path class="st7" d="M76.8,211.5c-2.5-2.2-6.5-1.9-10.9-0.2c1.1-1.5,2.1-3,3-4.6c1.7-3.1,3.4-7.6,0.8-10.8
			c-2.8-3.6-9-2.7-15.7,0.4c0.1-0.2,0.3-0.4,0.4-0.6c2-3.1,3.9-7.6,1.3-11c-1.2-1.7-3-2.5-5.3-2.7c-6.5-0.6-16.2,4.2-23.5,9.7
			c-1,0.7-1.9,1.5-2.9,2.2c0,0,0,0,0,0c-0.9,0.7-1.7,1.4-2.5,2.2c-3.4,3.3-5.5,8.4-3.6,13c1.6,3.8,5,6.4,9.2,6.3
			c0.8,0,1.6-0.1,2.4-0.3c-4.3,6.4-1,15.5,6.8,16.9c1.9,0.3,3.7,0.1,5.5-0.5c-0.2,0.6-0.4,1.2-0.6,1.8c-1,3.8,0.6,7.9,3.6,10.3
			c3.9,3.1,9.4,2.5,13.4,0c2.2-1.3,4.1-3,6-4.7c2-1.7,4-3.7,5.8-5.8c0,0,0,0,0,0c1.6-1.7,3-3.6,4.2-5.4c4.1-6,6.1-12.1,3-15.8
			C77.2,211.9,77,211.7,76.8,211.5z"/>
	</g>
	<g>
		<path class="st0" d="M285.3,112.1l1.2-13.9c0.8,0.2,3.4,0.4,4.2,0.4c5.1,0,10-2.6,10-42.1v-9h50.1v65.2h-18.1V63.3h-15.2v2.5
			c0,39.8-8.8,47.8-21.4,47.8C291.3,113.6,286.7,112.6,285.3,112.1"/>
		<path class="st0" d="M471.3,79.9c6.4,0,10.3-3.4,10.3-8.7c0-5.6-3.9-8.6-10.4-8.6h-8.5v17.2H471.3z M444.6,47.5h27.9
			c16.5,0,27.1,8.5,27.1,23.1c0,15.4-11.8,23.5-28,23.5h-8.9v18.6h-18.1V47.5z"/>
		<polygon class="st0" points="511.5,47.5 529.4,47.5 529.4,84.2 554.7,47.5 571.5,47.5 571.5,112.7 553.6,112.7 553.6,76 
			528.4,112.7 511.5,112.7 		"/>
		<polygon class="st0" points="431.1,136.3 449.2,136.3 449.2,185.6 467.2,185.6 467.2,146.2 485.2,146.2 485.2,185.6 503.2,185.6 
			503.2,136.3 521.3,136.3 521.3,201.5 431.1,201.5 		"/>
		<polygon class="st0" points="539,136.3 556.9,136.3 556.9,173 582.1,136.3 599,136.3 599,201.5 581.1,201.5 581.1,164.8 
			555.9,201.5 539,201.5 		"/>
		<polygon class="st0" points="420.1,136.3 400.4,136.3 386.5,166.9 371.6,136.3 351.5,136.3 377.2,184.8 368.7,201.5 387.4,201.5 
					"/>
		<path class="st0" d="M319.5,186.3c-9.1,0-15.6-7.6-15.6-17.4c0-9.7,6.4-17.4,15.6-17.4c5.6,0,9.7,2.3,13.2,6.2l13.3-10.3
			c-5.7-7.3-13.8-12.4-26.4-12.4c-19.7,0-34.4,14.9-34.4,33.9c0,19.7,15,33.9,33.6,33.9c13.6,0,21.8-5.6,27.8-13.3l-13.6-9.9
			C329.6,183.6,325.7,186.3,319.5,186.3"/>
		<path class="st0" d="M398.1,95.2c-8.6,0-15.5-7-15.5-15.5c0-8.6,7-15.5,15.5-15.5c8.6,0,15.5,7,15.5,15.5
			C413.6,88.3,406.6,95.2,398.1,95.2 M398.2,45.9c-18.7,0-33.8,15.2-33.8,33.8s15.2,33.8,33.8,33.8c18.7,0,33.8-15.2,33.8-33.8
			S416.9,45.9,398.2,45.9"/>
	</g>
</g>
</svg>
